HIERARCHY
ROOT Hips
{
	OFFSET 0.00000 0.00000 0.00000
	CHANNELS 6 Xposition Yposition Zposition Zrotation Yrotation Xrotation 
	JOINT LHipJoint
	{
		OFFSET 0 0 0
		CHANNELS 3 Zrotation Yrotation Xrotation
		JOINT LeftUpLeg
		{
			OFFSET 1.61328 -1.70571 0.84375
			CHANNELS 3 Zrotation Yrotation Xrotation
			JOINT LeftLeg
			{
				OFFSET 2.32400 -6.38513 0.00000
				CHANNELS 3 Zrotation Yrotation Xrotation
				JOINT LeftFoot
				{
					OFFSET 2.58843 -7.11166 0.00000
					CHANNELS 3 Zrotation Yrotation Xrotation
					JOINT LeftToeBase
					{
						OFFSET 0.17200 -0.47257 2.47970
						CHANNELS 3 Zrotation Yrotation Xrotation
						End Site
						{
							OFFSET 0.00000 -0.00000 1.26912
						}
					}
				}
			}
		}
	}
	JOINT RHipJoint
	{
		OFFSET 0 0 0
		CHANNELS 3 Zrotation Yrotation Xrotation
		JOINT RightUpLeg
		{
			OFFSET -1.49930 -1.70570 0.84375
			CHANNELS 3 Zrotation Yrotation Xrotation
			JOINT RightLeg
			{
				OFFSET -2.30458 -6.33178 0.00000
				CHANNELS 3 Zrotation Yrotation Xrotation
				JOINT RightFoot
				{
					OFFSET -2.62261 -7.20556 0.00000
					CHANNELS 3 Zrotation Yrotation Xrotation
					JOINT RightToeBase
					{
						OFFSET -0.18709 -0.51403 2.51340
						CHANNELS 3 Zrotation Yrotation Xrotation
						End Site
						{
							OFFSET -0.00000 -0.00000 1.28858
						}
					}
				}
			}
		}
	}
	JOINT LowerBack
	{
		OFFSET 0 0 0
		CHANNELS 3 Zrotation Yrotation Xrotation
		JOINT Spine
		{
			OFFSET -0.03798 2.19274 -0.19881
			CHANNELS 3 Zrotation Yrotation Xrotation
			JOINT Spine1
			{
				OFFSET -0.00024 2.19460 0.05248
				CHANNELS 3 Zrotation Yrotation Xrotation
				JOINT Neck
				{
					OFFSET 0 0 0
					CHANNELS 3 Zrotation Yrotation Xrotation
					JOINT Neck1
					{
						OFFSET -0.00746 1.82323 0.17286
						CHANNELS 3 Zrotation Yrotation Xrotation
						JOINT Head
						{
							OFFSET 0.11826 1.82121 -0.27841
							CHANNELS 3 Zrotation Yrotation Xrotation
							End Site
							{
								OFFSET 0.03496 1.85543 -0.11495
							}
						}
					}
				}
				JOINT LeftShoulder
				{
					OFFSET 0 0 0
					CHANNELS 3 Zrotation Yrotation Xrotation
					JOINT LeftArm
					{
						OFFSET 3.71926 0.78840 0.25473
						CHANNELS 3 Zrotation Yrotation Xrotation
						JOINT LeftForeArm
						{
							OFFSET 5.37587 -0.00000 0.00000
							CHANNELS 3 Zrotation Yrotation Xrotation
							JOINT LeftHand
							{
								OFFSET 3.35977 -0.00000 0.00000
								CHANNELS 3 Zrotation Yrotation Xrotation
								JOINT LeftFingerBase
								{
									OFFSET 0 0 0
									CHANNELS 3 Zrotation Yrotation Xrotation
									JOINT LeftHandIndex1
									{
										OFFSET 0.56186 -0.00000 0.00000
										CHANNELS 3 Zrotation Yrotation Xrotation
										End Site
										{
											OFFSET 0.45299 -0.00000 0.00000
										}
									}
								}
								JOINT LThumb
								{
									OFFSET 0 0 0
									CHANNELS 3 Zrotation Yrotation Xrotation
									End Site
									{
										OFFSET 0.45990 -0.00000 0.45990
									}
								}
							}
						}
					}
				}
				JOINT RightShoulder
				{
					OFFSET 0 0 0
					CHANNELS 3 Zrotation Yrotation Xrotation
					JOINT RightArm
					{
						OFFSET -3.65136 0.56074 0.01624
						CHANNELS 3 Zrotation Yrotation Xrotation
						JOINT RightForeArm
						{
							OFFSET -5.22819 -0.00000 0.00000
							CHANNELS 3 Zrotation Yrotation Xrotation
							JOINT RightHand
							{
								OFFSET -3.40764 -0.00000 0.00000
								CHANNELS 3 Zrotation Yrotation Xrotation
								JOINT RightFingerBase
								{
									OFFSET 0 0 0
									CHANNELS 3 Zrotation Yrotation Xrotation
									JOINT RightHandIndex1
									{
										OFFSET -0.58325 -0.00000 0.00000
										CHANNELS 3 Zrotation Yrotation Xrotation
										End Site
										{
											OFFSET -0.47024 -0.00000 0.00000
										}
									}
								}
								JOINT RThumb
								{
									OFFSET 0 0 0
									CHANNELS 3 Zrotation Yrotation Xrotation
									End Site
									{
										OFFSET -0.47742 -0.00000 0.47742
									}
								}
							}
						}
					}
				}
			}
		}
	}
}
MOTION
Frames: 5
Frame Time: 0.0123457
0.00 0.00 0.00 3.1766 59.4037 1061.3500 0.0000 0.0000 0.0000 -20.0542 26.0747 15.9959 3.6140 11.6283 34.4293 2.2693 -5.6081 -27.3043 0.0017 0.2701 0.7420 0.0000 0.0000 0.0000 1.6502 12.6797 -19.3572 -2.3917 -9.6383 27.8133 -10.6262 -2.4105 -63.4526 -2.5069 -9.8504 28.4937 -0.2148 3.7299 -2.5930 1.2524 5.0016 -2.7916 1.4573 2.5245 -1.5456 -2.9145 -0.7825 -12.6588 4.8641 -1.2944 16.3766 1.9410 -0.3264 7.1507 -0.0000 0.0000 0.0000 -16.4437 -24.3040 13.3600 39.0785 -47.5144 -17.7567 -0.0000 0.0000 -26.3073 28.2110 19.8338 10.3155 -7.1250 0.0000 -0.0000 -0.1809 52.2394 -0.0322 -0.0000 0.0000 0.0000 85.9654 39.1257 71.1103 -18.8345 29.2125 -4.9498 0.0000 0.0000 0.2079 -16.5287 4.9928 -1.4795 7.1250 -0.0000 -0.0000 7.5803 -24.7724 3.7377
0.00 0.00 0.00 2.5359 58.1713 1058.1800 0.0000 0.0000 0.0000 -19.3046 27.2463 30.3582 2.8412 10.4334 30.3921 1.8111 -10.8521 -24.2209 0.1692 2.6498 7.3052 0.0000 0.0000 0.0000 3.3357 8.9023 -30.7355 -1.9981 -8.8622 25.3651 -7.4144 -7.2063 -54.1358 -1.5956 -7.9674 22.6152 -5.5578 0.9035 -5.8989 0.1657 1.5071 -4.1959 3.3573 0.8993 -1.1810 -0.6387 0.5376 -13.3770 5.1912 0.0113 15.4483 1.7906 0.4612 6.9273 -0.0000 -0.0000 0.0000 -30.0427 -45.9247 27.9803 61.6015 -56.7218 -35.6769 -0.0000 0.0000 -26.5749 15.5891 17.0220 4.6692 -7.1250 0.0000 -0.0000 -11.7504 47.2633 -0.6650 -0.0000 -0.0000 0.0000 65.8422 53.5546 62.1772 -27.3544 38.5151 -9.7190 0.0000 -0.0000 -2.8841 -13.8379 4.2391 -1.0431 7.1250 -0.0000 -0.0000 9.6329 -25.6008 4.5863
0.00 0.00 0.00 -1.9250 54.1960 1062.4400 0.0000 0.0000 0.0000 -23.6872 27.0725 29.2314 1.8215 8.4840 24.1940 2.9306 -7.0485 -31.0531 0.1329 2.3499 6.4738 0.0000 0.0000 0.0000 23.3498 2.5650 -43.4098 -2.9712 -10.6483 31.1029 -3.7009 -5.1588 -38.3909 -0.1830 -2.7550 7.5975 -7.8530 -0.9458 -3.3501 -0.4314 -1.0629 -3.3283 3.9316 -0.3649 -1.4372 0.4883 2.7324 -15.2747 4.6997 2.8285 14.6763 1.7392 1.8343 6.9416 0.0000 0.0000 0.0000 -21.6305 -56.4043 16.5806 81.3327 -59.7142 -52.5011 -0.0000 0.0000 -24.6572 10.2076 16.7593 2.9722 -7.1250 0.0000 -0.0000 -16.5972 46.3008 -0.5477 0.0000 0.0000 0.0000 18.6763 45.3984 32.1770 -42.9084 49.7017 -20.6308 0.0000 -0.0000 -9.7393 -13.0833 3.2898 -0.7641 7.1250 -0.0000 -0.0000 10.2711 -26.5711 4.6623
0.00 0.00 0.00 -4.6345 54.4326 1068.2700 0.0000 0.0000 0.0000 -27.4987 25.8780 22.0718 2.0439 8.9569 25.6606 2.7858 -6.4317 -30.3012 0.1323 2.3445 6.4587 0.0000 0.0000 0.0000 26.7901 5.6709 -44.8152 -4.1200 -12.3184 36.8679 -3.0306 -5.9485 -35.3562 -0.0773 -1.7940 4.9368 -7.0643 -3.5426 -0.2396 0.6670 -4.7824 -2.8195 4.6892 -2.2240 -2.1544 3.0734 5.7232 -15.2623 2.3047 6.7250 12.6015 0.9059 3.6025 6.3535 0.0000 0.0000 0.0000 -11.1920 -58.1982 -1.8177 99.5198 -59.6548 -68.2349 -0.0000 0.0000 -25.6827 16.9909 15.7441 4.7396 -7.1250 0.0000 -0.0000 -10.0843 46.1554 -0.2905 0.0000 0.0000 0.0000 -5.0007 34.7419 18.8060 -44.3245 50.4332 -21.7168 0.0000 -0.0000 -10.8982 -12.6966 4.1074 -0.9245 7.1250 -0.0000 -0.0000 10.4963 -25.7503 4.9730
0.00 0.00 0.00 -4.6738 53.7265 1072.9100 0.0000 0.0000 0.0000 -28.9551 24.6912 8.1349 5.2426 13.6518 41.8603 1.0118 -6.5069 -17.9494 0.6802 5.2733 14.6898 0.0000 0.0000 0.0000 27.2483 0.1339 -49.3424 -3.5671 -11.5609 34.1958 -2.5148 -0.5444 -30.2372 -0.0539 -1.4985 4.1215 -5.8661 -4.3265 3.3895 1.7829 -6.0075 -1.7762 5.4403 -2.8560 -2.9456 5.4515 7.2060 -13.7369 1.2077 8.4998 8.8075 0.2266 4.4317 5.0541 -0.0000 -0.0000 0.0000 -15.9523 -56.6815 5.4599 101.7304 -59.4736 -70.1408 -0.0000 0.0000 -26.0079 20.2201 15.4621 5.6082 -7.1250 0.0000 -0.0000 -7.0229 46.2837 -0.2236 -0.0000 -0.0000 0.0000 -11.1528 33.6486 8.6515 -36.6914 45.9828 -16.0177 0.0000 -0.0000 -8.1094 -14.0090 5.9834 -1.4898 7.1250 -0.0000 -0.0000 9.3979 -23.8256 4.8639
